<svg xmlns="http://www.w3.org/2000/svg" xmlns:xlink="http://www.w3.org/1999/xlink" width="50" zoomAndPan="magnify" viewBox="0 0 37.5 37.499999" height="50" preserveAspectRatio="xMidYMid meet" version="1.0"><defs><g/><clipPath id="923466633c"><path d="M 0 0 L 37.007812 0 L 37.007812 37.007812 L 0 37.007812 Z M 0 0 " clip-rule="nonzero"/></clipPath><clipPath id="b02b72931b"><path d="M 18.75 0 C 29.105469 0 37.5 8.394531 37.5 18.75 C 37.5 29.105469 29.105469 37.5 18.75 37.5 C 8.394531 37.5 0 29.105469 0 18.75 C 0 8.394531 8.394531 0 18.75 0 " clip-rule="nonzero"/></clipPath><clipPath id="8282d3dfd0"><path d="M 2 2.003906 L 28 2.003906 L 28 20 L 2 20 Z M 2 2.003906 " clip-rule="nonzero"/></clipPath><clipPath id="2394a0dd54"><path d="M 9 5 L 35.625 5 L 35.625 22.253906 L 9 22.253906 Z M 9 5 " clip-rule="nonzero"/></clipPath></defs><g clip-path="url(#923466633c)"><g clip-path="url(#b02b72931b)"><path fill="#ffffff" d="M 0 0 L 37.441406 0 L 37.441406 37.441406 L 0 37.441406 Z M 0 0 " fill-opacity="1" fill-rule="nonzero"/></g></g><g clip-path="url(#8282d3dfd0)"><path fill="#000000" d="M 17.035156 8.371094 C 17.035156 8.371094 19.171875 9.640625 20.148438 10.464844 C 21.117188 11.277344 25.582031 14.6875 26.425781 15.347656 C 27.269531 16.011719 27.949219 17.269531 27.851562 17.785156 C 27.816406 17.957031 27.6875 18.234375 27.046875 18.390625 C 26.6875 18.480469 24.664062 18.792969 22.796875 18.886719 C 20.929688 18.980469 15.898438 19.308594 15.164062 19.328125 C 14.425781 19.347656 9.523438 19.578125 7.085938 19.539062 C 4.644531 19.5 2.765625 19.089844 2.363281 18.875 C 1.875 18.613281 2.097656 17.960938 2.398438 17.519531 C 2.699219 17.078125 5.132812 14.878906 6.164062 14.144531 C 7.195312 13.398438 10.976562 10.550781 11.765625 9.898438 C 12.546875 9.246094 14.828125 7.46875 14.828125 7.46875 C 14.828125 7.46875 14.828125 7.46875 14.890625 6.875 C 14.949219 6.285156 15.097656 5.855469 15.570312 5.421875 C 16.046875 4.980469 16.214844 4.390625 16.046875 4.007812 C 15.878906 3.628906 15.359375 3.535156 14.683594 3.722656 C 14.007812 3.914062 14.019531 5.199219 14.019531 5.339844 C 14.019531 5.484375 12.867188 5.511719 12.882812 5.308594 C 13.003906 3.617188 14.09375 2.019531 16.214844 2.664062 C 18.296875 3.304688 17.050781 5.566406 16.429688 6.140625 C 15.804688 6.71875 15.871094 7.285156 15.871094 7.886719 C 15.871094 8.433594 3.921875 17.195312 3.875 17.726562 C 3.820312 18.253906 11.117188 17.9375 19.03125 17.726562 C 26.945312 17.515625 26.691406 16.992188 25.542969 15.984375 C 24.398438 15 16.328125 9.179688 16.328125 9.179688 C 16.441406 8.859375 17.035156 8.371094 17.035156 8.371094 Z M 17.035156 8.371094 " fill-opacity="1" fill-rule="nonzero"/></g><g clip-path="url(#2394a0dd54)"><path fill="#ff3131" d="M 24.710938 11.027344 C 24.710938 11.027344 26.847656 12.296875 27.824219 13.117188 C 28.792969 13.933594 33.257812 17.34375 34.097656 18.003906 C 34.941406 18.667969 35.625 19.925781 35.523438 20.441406 C 35.492188 20.613281 35.363281 20.890625 34.722656 21.046875 C 34.359375 21.136719 32.339844 21.449219 30.472656 21.542969 C 28.605469 21.636719 23.574219 21.964844 22.839844 21.984375 C 22.101562 22.003906 17.199219 22.234375 14.761719 22.195312 C 12.320312 22.160156 10.441406 21.746094 10.039062 21.527344 C 9.550781 21.269531 9.769531 20.617188 10.070312 20.175781 C 10.371094 19.734375 12.808594 17.535156 13.839844 16.800781 C 14.871094 16.054688 18.648438 13.207031 19.4375 12.554688 C 20.222656 11.902344 22.503906 10.125 22.503906 10.125 C 22.503906 10.125 22.503906 10.125 22.5625 9.53125 C 22.625 8.941406 22.769531 8.511719 23.246094 8.078125 C 23.722656 7.644531 23.890625 7.046875 23.722656 6.664062 C 23.554688 6.285156 23.03125 6.191406 22.355469 6.378906 C 21.679688 6.570312 21.695312 7.855469 21.695312 7.996094 C 21.695312 8.140625 20.542969 8.167969 20.554688 7.964844 C 20.675781 6.269531 21.769531 4.675781 23.890625 5.320312 C 25.96875 5.957031 24.726562 8.222656 24.101562 8.796875 C 23.480469 9.375 23.546875 9.941406 23.546875 10.542969 C 23.546875 11.089844 11.597656 19.851562 11.550781 20.382812 C 11.496094 20.910156 18.789062 20.589844 26.707031 20.382812 C 34.621094 20.171875 34.367188 19.648438 33.214844 18.640625 C 32.066406 17.636719 23.996094 11.820312 23.996094 11.820312 C 24.117188 11.515625 24.710938 11.027344 24.710938 11.027344 Z M 24.710938 11.027344 " fill-opacity="1" fill-rule="nonzero"/></g><g fill="#000000" fill-opacity="1"><g transform="translate(6.313067, 31.109236)"><g><path d="M 3.59375 -5.609375 L 3.59375 -2.015625 C 3.59375 -1.773438 3.578125 -1.546875 3.546875 -1.328125 C 3.515625 -1.117188 3.425781 -0.914062 3.28125 -0.71875 C 3.101562 -0.457031 2.882812 -0.257812 2.625 -0.125 C 2.363281 0 2.082031 0.0625 1.78125 0.0625 C 1.570312 0.0625 1.375 0.0234375 1.1875 -0.046875 C 1.007812 -0.117188 0.84375 -0.210938 0.6875 -0.328125 C 0.539062 -0.441406 0.410156 -0.578125 0.296875 -0.734375 C 0.191406 -0.898438 0.113281 -1.078125 0.0625 -1.265625 L 1.09375 -1.609375 C 1.132812 -1.460938 1.210938 -1.335938 1.328125 -1.234375 C 1.453125 -1.128906 1.59375 -1.078125 1.75 -1.078125 C 1.9375 -1.078125 2.082031 -1.140625 2.1875 -1.265625 C 2.289062 -1.390625 2.351562 -1.53125 2.375 -1.6875 C 2.375 -1.71875 2.375 -1.796875 2.375 -1.921875 C 2.382812 -2.046875 2.390625 -2.203125 2.390625 -2.390625 C 2.390625 -2.578125 2.390625 -2.785156 2.390625 -3.015625 C 2.390625 -3.253906 2.390625 -3.492188 2.390625 -3.734375 C 2.390625 -4.296875 2.382812 -4.921875 2.375 -5.609375 Z M 3.59375 -5.609375 "/></g></g></g><g fill="#000000" fill-opacity="1"><g transform="translate(10.258391, 31.109236)"><g><path d="M 3.390625 -3.921875 L 4.59375 -3.921875 L 2.109375 1.5625 L 0.90625 1.5625 L 1.890625 -0.59375 L 0.21875 -3.921875 L 1.4375 -3.921875 L 2.46875 -1.875 Z M 3.390625 -3.921875 "/></g></g></g><g fill="#000000" fill-opacity="1"><g transform="translate(14.940495, 31.109236)"><g><path d="M 3.59375 -5.609375 L 3.59375 -2.015625 C 3.59375 -1.773438 3.578125 -1.546875 3.546875 -1.328125 C 3.515625 -1.117188 3.425781 -0.914062 3.28125 -0.71875 C 3.101562 -0.457031 2.882812 -0.257812 2.625 -0.125 C 2.363281 0 2.082031 0.0625 1.78125 0.0625 C 1.570312 0.0625 1.375 0.0234375 1.1875 -0.046875 C 1.007812 -0.117188 0.84375 -0.210938 0.6875 -0.328125 C 0.539062 -0.441406 0.410156 -0.578125 0.296875 -0.734375 C 0.191406 -0.898438 0.113281 -1.078125 0.0625 -1.265625 L 1.09375 -1.609375 C 1.132812 -1.460938 1.210938 -1.335938 1.328125 -1.234375 C 1.453125 -1.128906 1.59375 -1.078125 1.75 -1.078125 C 1.9375 -1.078125 2.082031 -1.140625 2.1875 -1.265625 C 2.289062 -1.390625 2.351562 -1.53125 2.375 -1.6875 C 2.375 -1.71875 2.375 -1.796875 2.375 -1.921875 C 2.382812 -2.046875 2.390625 -2.203125 2.390625 -2.390625 C 2.390625 -2.578125 2.390625 -2.785156 2.390625 -3.015625 C 2.390625 -3.253906 2.390625 -3.492188 2.390625 -3.734375 C 2.390625 -4.296875 2.382812 -4.921875 2.375 -5.609375 Z M 3.59375 -5.609375 "/></g></g></g><g fill="#ea2100" fill-opacity="1"><g transform="translate(18.877307, 31.109236)"><g><path d="M 5.296875 -2.0625 C 5.148438 -1.90625 5 -1.75 4.84375 -1.59375 C 4.695312 -1.445312 4.546875 -1.304688 4.390625 -1.171875 L 5.453125 0 L 4.109375 0 L 3.625 -0.515625 C 3.375 -0.335938 3.109375 -0.175781 2.828125 -0.03125 C 2.554688 0.101562 2.265625 0.171875 1.953125 0.171875 C 1.742188 0.171875 1.546875 0.132812 1.359375 0.0625 C 1.171875 0 1 -0.09375 0.84375 -0.21875 C 0.695312 -0.34375 0.578125 -0.5 0.484375 -0.6875 C 0.398438 -0.875 0.359375 -1.09375 0.359375 -1.34375 C 0.359375 -1.675781 0.453125 -1.984375 0.640625 -2.265625 C 0.828125 -2.554688 1.066406 -2.816406 1.359375 -3.046875 L 0.4375 -4.09375 C 0.4375 -4.34375 0.488281 -4.570312 0.59375 -4.78125 C 0.695312 -4.988281 0.828125 -5.160156 0.984375 -5.296875 C 1.148438 -5.441406 1.335938 -5.550781 1.546875 -5.625 C 1.753906 -5.707031 1.960938 -5.75 2.171875 -5.75 C 2.378906 -5.75 2.578125 -5.707031 2.765625 -5.625 C 2.953125 -5.539062 3.117188 -5.425781 3.265625 -5.28125 C 3.410156 -5.144531 3.523438 -4.988281 3.609375 -4.8125 C 3.703125 -4.632812 3.75 -4.441406 3.75 -4.234375 C 3.75 -4.085938 3.722656 -3.945312 3.671875 -3.8125 C 3.628906 -3.6875 3.566406 -3.566406 3.484375 -3.453125 C 3.398438 -3.347656 3.300781 -3.25 3.1875 -3.15625 C 3.082031 -3.0625 2.96875 -2.972656 2.84375 -2.890625 L 3.734375 -1.921875 C 3.796875 -1.960938 3.851562 -2.015625 3.90625 -2.078125 C 3.957031 -2.140625 4.015625 -2.195312 4.078125 -2.25 L 4.578125 -2.765625 Z M 1.890625 -0.78125 C 2.023438 -0.78125 2.15625 -0.804688 2.28125 -0.859375 C 2.414062 -0.910156 2.53125 -0.96875 2.625 -1.03125 C 2.738281 -1.101562 2.847656 -1.1875 2.953125 -1.28125 C 2.796875 -1.457031 2.632812 -1.625 2.46875 -1.78125 C 2.3125 -1.945312 2.160156 -2.125 2.015625 -2.3125 C 1.867188 -2.1875 1.734375 -2.054688 1.609375 -1.921875 C 1.554688 -1.867188 1.492188 -1.796875 1.421875 -1.703125 C 1.359375 -1.609375 1.328125 -1.46875 1.328125 -1.28125 C 1.328125 -1.238281 1.335938 -1.1875 1.359375 -1.125 C 1.390625 -1.0625 1.425781 -1.003906 1.46875 -0.953125 C 1.507812 -0.910156 1.566406 -0.867188 1.640625 -0.828125 C 1.710938 -0.796875 1.796875 -0.78125 1.890625 -0.78125 Z M 2.109375 -4.78125 C 1.984375 -4.78125 1.878906 -4.753906 1.796875 -4.703125 C 1.722656 -4.648438 1.671875 -4.59375 1.640625 -4.53125 C 1.597656 -4.457031 1.570312 -4.375 1.5625 -4.28125 L 2.171875 -3.640625 C 2.296875 -3.722656 2.394531 -3.796875 2.46875 -3.859375 C 2.539062 -3.929688 2.59375 -3.988281 2.625 -4.03125 C 2.65625 -4.082031 2.675781 -4.128906 2.6875 -4.171875 C 2.695312 -4.210938 2.703125 -4.25 2.703125 -4.28125 C 2.703125 -4.425781 2.640625 -4.546875 2.515625 -4.640625 C 2.390625 -4.734375 2.253906 -4.78125 2.109375 -4.78125 Z M 2.109375 -4.78125 "/></g></g></g><g fill="#000000" fill-opacity="1"><g transform="translate(24.396083, 31.109236)"><g><path d="M 5.296875 -5.609375 L 6.421875 -5.609375 L 6.421875 0 L 5.234375 0 L 5.234375 -3.703125 L 3.890625 -1.828125 L 2.9375 -1.828125 L 1.578125 -3.65625 L 1.578125 0 L 0.375 0 L 0.375 -5.609375 L 1.515625 -5.609375 L 3.421875 -3.03125 Z M 5.296875 -5.609375 "/></g></g></g></svg>