<svg xmlns="http://www.w3.org/2000/svg" xmlns:xlink="http://www.w3.org/1999/xlink" width="50" zoomAndPan="magnify" viewBox="0 0 37.5 37.499999" height="50" preserveAspectRatio="xMidYMid meet" version="1.0"><defs><clipPath id="2c0afa13b3"><path d="M 0 0 L 37.007812 0 L 37.007812 37.007812 L 0 37.007812 Z M 0 0 " clip-rule="nonzero"/></clipPath><clipPath id="94fae11b08"><path d="M 18.75 0 C 29.105469 0 37.5 8.394531 37.5 18.75 C 37.5 29.105469 29.105469 37.5 18.75 37.5 C 8.394531 37.5 0 29.105469 0 18.75 C 0 8.394531 8.394531 0 18.75 0 " clip-rule="nonzero"/></clipPath><clipPath id="8aaa3ef11c"><path d="M 9 10 L 35.625 10 L 35.625 27.167969 L 9 27.167969 Z M 9 10 " clip-rule="nonzero"/></clipPath></defs><g clip-path="url(#2c0afa13b3)"><g clip-path="url(#94fae11b08)"><path fill="#ffffff" d="M 0 0 L 37.441406 0 L 37.441406 37.441406 L 0 37.441406 Z M 0 0 " fill-opacity="1" fill-rule="nonzero"/></g></g><path fill="#000000" d="M 17.035156 13.285156 C 17.035156 13.285156 19.171875 14.554688 20.148438 15.375 C 21.117188 16.191406 25.582031 19.601562 26.425781 20.261719 C 27.269531 20.925781 27.949219 22.183594 27.851562 22.699219 C 27.816406 22.871094 27.6875 23.148438 27.046875 23.304688 C 26.6875 23.394531 24.664062 23.707031 22.796875 23.800781 C 20.929688 23.894531 15.898438 24.222656 15.164062 24.242188 C 14.425781 24.261719 9.523438 24.492188 7.085938 24.453125 C 4.644531 24.410156 2.765625 24.003906 2.363281 23.785156 C 1.875 23.527344 2.097656 22.875 2.398438 22.433594 C 2.699219 21.992188 5.132812 19.792969 6.164062 19.058594 C 7.195312 18.3125 10.976562 15.464844 11.765625 14.8125 C 12.546875 14.160156 14.828125 12.382812 14.828125 12.382812 C 14.828125 12.382812 14.828125 12.382812 14.890625 11.789062 C 14.949219 11.199219 15.097656 10.769531 15.570312 10.335938 C 16.046875 9.894531 16.214844 9.304688 16.046875 8.921875 C 15.878906 8.542969 15.359375 8.449219 14.683594 8.636719 C 14.007812 8.828125 14.019531 10.113281 14.019531 10.253906 C 14.019531 10.398438 12.867188 10.425781 12.882812 10.21875 C 13.003906 8.527344 14.09375 6.933594 16.214844 7.578125 C 18.296875 8.214844 17.050781 10.480469 16.429688 11.054688 C 15.804688 11.632812 15.871094 12.199219 15.871094 12.800781 C 15.871094 13.34375 3.921875 22.109375 3.875 22.640625 C 3.820312 23.167969 11.117188 22.847656 19.03125 22.640625 C 26.945312 22.429688 26.691406 21.90625 25.542969 20.898438 C 24.398438 19.914062 16.328125 14.09375 16.328125 14.09375 C 16.441406 13.773438 17.035156 13.285156 17.035156 13.285156 Z M 17.035156 13.285156 " fill-opacity="1" fill-rule="nonzero"/><g clip-path="url(#8aaa3ef11c)"><path fill="#ff3131" d="M 24.710938 15.941406 C 24.710938 15.941406 26.847656 17.210938 27.824219 18.03125 C 28.792969 18.847656 33.257812 22.257812 34.097656 22.917969 C 34.941406 23.582031 35.625 24.839844 35.523438 25.355469 C 35.492188 25.527344 35.363281 25.804688 34.722656 25.960938 C 34.359375 26.050781 32.339844 26.363281 30.472656 26.457031 C 28.605469 26.550781 23.574219 26.878906 22.839844 26.898438 C 22.101562 26.917969 17.199219 27.148438 14.761719 27.109375 C 12.320312 27.074219 10.441406 26.660156 10.039062 26.441406 C 9.550781 26.183594 9.769531 25.53125 10.070312 25.089844 C 10.371094 24.648438 12.808594 22.449219 13.839844 21.714844 C 14.871094 20.96875 18.648438 18.121094 19.4375 17.46875 C 20.222656 16.816406 22.503906 15.039062 22.503906 15.039062 C 22.503906 15.039062 22.503906 15.039062 22.5625 14.445312 C 22.625 13.855469 22.769531 13.425781 23.246094 12.992188 C 23.722656 12.558594 23.890625 11.960938 23.722656 11.578125 C 23.554688 11.199219 23.03125 11.105469 22.355469 11.292969 C 21.679688 11.484375 21.695312 12.769531 21.695312 12.910156 C 21.695312 13.054688 20.542969 13.082031 20.554688 12.875 C 20.675781 11.183594 21.769531 9.589844 23.890625 10.234375 C 25.96875 10.871094 24.726562 13.136719 24.101562 13.710938 C 23.480469 14.289062 23.546875 14.855469 23.546875 15.457031 C 23.546875 16 11.597656 24.765625 11.550781 25.296875 C 11.496094 25.824219 18.789062 25.503906 26.707031 25.296875 C 34.621094 25.085938 34.367188 24.5625 33.214844 23.554688 C 32.066406 22.550781 23.996094 16.734375 23.996094 16.734375 C 24.117188 16.429688 24.710938 15.941406 24.710938 15.941406 Z M 24.710938 15.941406 " fill-opacity="1" fill-rule="nonzero"/></g></svg>